<svg width="20" height="20" viewBox="0 0 20 20" fill="none" xmlns="http://www.w3.org/2000/svg">
<path d="M5.5 15H6.38197C6.76074 15 7.107 14.786 7.27639 14.4472L9 11V6C9 5.44772 8.55228 5 8 5H4C3.44772 5 3 5.44772 3 6V10C3 10.5523 3.44772 11 4 11H6L4.67082 13.6584C4.44185 14.1163 4.62747 14.6732 5.08541 14.9021C5.21414 14.9665 5.35608 15 5.5 15ZM13.5 15H14.382C14.7607 15 15.107 14.786 15.2764 14.4472L17 11V6C17 5.44772 16.5523 5 16 5H12C11.4477 5 11 5.44772 11 6V10C11 10.5523 11.4477 11 12 11H14L12.6708 13.6584C12.4418 14.1163 12.6275 14.6732 13.0854 14.9021C13.2141 14.9665 13.3561 15 13.5 15Z" fill="black"/>
</svg>
