<svg width="20" height="20" viewBox="0 0 20 20" fill="none" xmlns="http://www.w3.org/2000/svg">
<path fill-rule="evenodd" clip-rule="evenodd" d="M5.76004 17C5.5067 17 5.32004 16.94 5.20004 16.82C5.08004 16.7 5.02004 16.5133 5.02004 16.26L5 3.74C5 3.47333 5.08004 3.28333 5.20004 3.17C5.32004 3.05667 5.5067 3 5.76004 3H10.7787C12.3387 3 13.502 3.31666 14.2687 3.95C15.0354 4.58334 15.4187 5.44666 15.4187 6.54C15.4187 7.20667 15.2087 7.82333 14.7887 8.39C14.3687 8.95667 13.852 9.35333 13.2387 9.58L13.2587 9.66C13.6454 9.72667 14.052 9.90666 14.4787 10.2C14.9054 10.4933 15.2654 10.8767 15.5587 11.35C15.852 11.8233 15.9987 12.36 15.9987 12.96C15.9987 14.28 15.572 15.2833 14.7187 15.97C13.8654 16.6567 12.5987 17 10.9187 17H5.76004ZM10.7283 8.74C11.4154 8.74 11.9658 8.57 12.3795 8.23C12.7932 7.89 13 7.46 13 6.94C13 5.79333 12.2428 5.22 10.7283 5.22H7.2787V8.74H10.7283ZM11.3182 14.76C12.0438 14.76 12.602 14.59 12.9927 14.25C13.3834 13.91 13.5787 13.4267 13.5787 12.8C13.5787 12.2133 13.3554 11.7633 12.9089 11.45C12.4624 11.1367 11.8206 10.98 10.9834 10.98H7.2787V14.76H11.3182Z" fill="black"/>
</svg>
