<?xml version="1.0" encoding="UTF-8"?>
<svg width="12px" height="14px" viewBox="0 0 12 14" version="1.1" xmlns="http://www.w3.org/2000/svg" xmlns:xlink="http://www.w3.org/1999/xlink">
    <!-- Generator: Sketch 60.1 (88133) - https://sketch.com -->
    <title>bold</title>
    <desc>Created with Sketch.</desc>
    <defs>
        <path d="M5.77453333,13.0662 L1.6548,13.0662 C1.06026667,13.0662 0.6356,12.9374 0.381733333,12.6788667 C0.126933333,12.4203333 0,12.0087333 0,11.4440667 L0,1.62166667 C0,1.0458 0.130666667,0.630466667 0.391066667,0.378466667 C0.651466667,0.126466667 1.0724,-0.000466666667 1.6548,-0.000466666667 L6.0228,-0.000466666667 C6.6668,-0.000466666667 7.22493333,0.0378 7.69626667,0.115266667 C8.16853333,0.192733333 8.59226667,0.341133333 8.9656,0.5614 C9.28386667,0.745266667 9.56666667,0.9786 9.8112,1.2614 C10.3000889,1.81964203 10.5682667,2.53721688 10.5653333,3.27926667 C10.5653333,4.58686667 9.89146667,5.54353333 8.5428,6.14926667 C10.3133333,6.6962 11.2,7.7602 11.2,9.3422 C11.2164081,10.7664458 10.3694361,12.0590372 9.05706667,12.6126 C8.60215413,12.7901238 8.12629254,12.9083834 7.6412,12.9644667 C7.10826667,13.0326 6.48573333,13.0671333 5.77453333,13.0671333 L5.77453333,13.0662 Z M5.572,7.26366667 L2.8,7.26366667 L2.8,11.0782 L5.6644,11.0782 C7.5096,11.0782 8.43173333,10.4342 8.43173333,9.14433333 C8.43173333,8.48446667 8.1928,8.00566667 7.71493333,7.7098 C7.23706667,7.41206667 6.52306667,7.26366667 5.572,7.26366667 L5.572,7.26366667 Z M2.8,1.98753333 L2.8,5.36526667 L5.23226667,5.36526667 C5.91266667,5.36526667 6.43813333,5.30273333 6.8096,5.1786 C7.17390486,5.05851539 7.47803061,4.80284924 7.65893333,4.4646 C7.81293333,4.2154 7.88946667,3.93633333 7.88946667,3.6274 C7.88946667,2.96753333 7.6468,2.5298 7.16333333,2.31233333 C6.67893333,2.0958 5.94066667,1.98753333 4.94666667,1.98753333 L2.8,1.98753333 L2.8,1.98753333 Z" id="path-1"></path>
    </defs>
    <g id="Page-1" stroke="none" stroke-width="1" fill="none" fill-rule="evenodd">
        <g id="button-bold" transform="translate(-8.000000, -7.000000)">
            <rect id="bg" x="0" y="0" width="28" height="28" rx="2"></rect>
            <g id="icons/bold" transform="translate(4.666667, 4.666667)">
                <g id="bold" transform="translate(3.733333, 2.800000)">
                    <mask id="mask-2" fill="white">
                        <use xlink:href="#path-1"></use>
                    </mask>
                    <use id="icon" fill="#000000" xlink:href="#path-1"></use>
                    <g id="colors/base-text" mask="url(#mask-2)" fill="#333333">
                        <g transform="translate(-3.733333, -2.800000)" id="color">
                            <rect x="0" y="0" width="18.6666667" height="18.6666667"></rect>
                        </g>
                    </g>
                </g>
            </g>
        </g>
    </g>
</svg>