<?xml version="1.0" encoding="UTF-8"?>
<svg width="32px" height="15px" viewBox="0 0 32 15" version="1.1" xmlns="http://www.w3.org/2000/svg" xmlns:xlink="http://www.w3.org/1999/xlink">
    <!-- Generator: Sketch 60.1 (88133) - https://sketch.com -->
    <title>headers</title>
    <desc>Created with Sketch.</desc>
    <defs>
        <path d="M9.70056077,8.69597148 L7.10776077,2.42863815 L4.51589411,8.69597148 L9.70056077,8.69597148 L9.70056077,8.69597148 Z M10.2792274,10.0959715 L3.93722744,10.0959715 L2.38229411,13.8554381 L0.830160774,13.8554381 L6.23322744,0.788771479 L7.98322744,0.788771479 L13.3862941,13.8554381 L11.8341608,13.8554381 L10.2792274,10.0959715 Z M17.3258941,12.2230381 L18.0529608,11.4959715 L18.7128274,12.1558381 L16.5988274,14.2698381 L14.5520274,12.1558381 L15.2118941,11.4959715 L15.9258941,12.2099715 L15.9258941,2.46597148 C15.9258941,2.42677148 15.9258941,2.38850481 15.9277608,2.35117148 L15.2090941,3.06983815 L14.5492274,2.40997148 L16.5988274,0.295971479 L18.7128274,2.40997148 L18.0529608,3.06983815 L17.3230941,2.33997148 C17.3249608,2.38010481 17.3258941,2.42303815 17.3258941,2.46597148 L17.3258941,12.2230381 Z" id="path-1"></path>
        <path d="M0.941,1.523 C0.740346822,1.33602942 0.657750818,1.05444446 0.725614458,0.788711091 C0.793478098,0.522977725 1.00097772,0.315478098 1.26671109,0.247614458 C1.53244446,0.179750818 1.81402942,0.262346822 2.001,0.463 L5.007,3.468 L8.012,0.463 C8.19897058,0.262346822 8.48055554,0.179750818 8.74628891,0.247614458 C9.01202228,0.315478098 9.2195219,0.522977725 9.28738554,0.788711091 C9.35524918,1.05444446 9.27265318,1.33602942 9.072,1.523 L5.523,5.073 C5.36092448,5.2349628 5.13370378,5.31395282 4.90611171,5.28745237 C4.67851964,5.26095193 4.47552667,5.13186854 4.355,4.937 L0.941,1.523 Z" id="path-3"></path>
    </defs>
    <g id="Page-1" stroke="none" stroke-width="1" fill="none" fill-rule="evenodd">
        <g id="button-font-size" transform="translate(-4.000000, -6.000000)">
            <rect id="bg" x="0" y="0" width="28" height="28" rx="2"></rect>
            <g id="icons/font-size" transform="translate(4.666667, 4.666667)">
                <g id="font-size" transform="translate(-0.933333, 1.866667)">
                    <mask id="mask-2" fill="white">
                        <use xlink:href="#path-1"></use>
                    </mask>
                    <use id="icon" fill="#000000" xlink:href="#path-1"></use>
                    <g id="colors/base-text" mask="url(#mask-2)" fill="#333333">
                        <g transform="translate(0.933333, -1.866667)" id="color">
                            <rect x="0" y="0" width="18.6666667" height="18.6666667"></rect>
                        </g>
                    </g>
                </g>
            </g>
            <g id="icons/dropdown" transform="translate(23.333333, 4.666667)">
                <g id="dropdown-arrow" transform="translate(3.000000, 7.000000)">
                    <mask id="mask-4" fill="white">
                        <use xlink:href="#path-3"></use>
                    </mask>
                    <use id="Mask" fill="#333333" xlink:href="#path-3"></use>
                    <g id="colors/base-text" mask="url(#mask-4)" fill="#333333">
                        <g transform="translate(-5.000000, -7.000000)" id="color">
                            <rect x="0" y="0" width="20" height="20"></rect>
                        </g>
                    </g>
                </g>
            </g>
        </g>
    </g>
</svg>