<?xml version="1.0" encoding="UTF-8"?>
<svg width="16px" height="14px" viewBox="0 0 16 14" version="1.1" xmlns="http://www.w3.org/2000/svg" xmlns:xlink="http://www.w3.org/1999/xlink">
    <!-- Generator: Sketch 60.1 (88133) - https://sketch.com -->
    <title>image</title>
    <desc>Created with Sketch.</desc>
    <defs>
        <path d="M4.86266667,7.00933333 C5.10533333,6.79466667 5.46,6.81333333 5.684,7.03733333 L8.82,9.968 L10.9013333,8.04533333 C11.1303893,7.83308233 11.4842773,7.83308233 11.7133333,8.04533333 L14.0653333,10.8173333 L14.0653333,1.372 L1.4,1.372 L1.4,10.8173333 L4.86266667,7.00933333 Z M14.448,0 C15.008,0 15.4653333,0.438666667 15.4653333,0.98 L15.4653333,12.0306667 C15.4653333,12.5813333 15.008,13.02 14.448,13.02 L1.01733333,13.02 C0.457333333,13.02 0,12.5813333 0,12.0306667 L0,0.98 C0,0.438666667 0.457333333,0 1.02666667,0 L14.448,0 Z M9.576,5.18933333 C9.24922106,4.62247193 9.24968183,3.9243359 9.57720874,3.35790634 C9.90473565,2.79147677 10.5095696,2.4428078 11.1638754,2.44323926 C11.8181813,2.44367151 12.4225544,2.79313858 12.7493333,3.36 C13.2544898,4.2362918 12.9536251,5.35617686 12.0773333,5.86133331 C11.2010415,6.36648976 10.0811565,6.06562512 9.576,5.18933333 L9.576,5.18933333 Z" id="path-1"></path>
    </defs>
    <g id="Page-1" stroke="none" stroke-width="1" fill="none" fill-rule="evenodd">
        <g id="button-image" transform="translate(-6.000000, -7.000000)">
            <rect id="bg" x="0" y="0" width="28" height="28" rx="2"></rect>
            <g id="icons/image" transform="translate(4.666667, 4.666667)">
                <g id="image" transform="translate(1.400000, 2.800000)">
                    <mask id="mask-2" fill="white">
                        <use xlink:href="#path-1"></use>
                    </mask>
                    <use id="icon" fill="#000000" fill-rule="nonzero" xlink:href="#path-1"></use>
                    <g id="colors/base-text" mask="url(#mask-2)" fill="#333333">
                        <g transform="translate(-1.400000, -2.800000)" id="color">
                            <rect x="0" y="0" width="18.6666667" height="18.6666667"></rect>
                        </g>
                    </g>
                </g>
            </g>
        </g>
    </g>
</svg>