<?xml version="1.0" encoding="UTF-8"?>
<svg width="10px" height="14px" viewBox="0 0 10 14" version="1.1" xmlns="http://www.w3.org/2000/svg" xmlns:xlink="http://www.w3.org/1999/xlink">
    <!-- Generator: Sketch 60.1 (88133) - https://sketch.com -->
    <title>italic</title>
    <desc>Created with Sketch.</desc>
    <defs>
        <path d="M5.2136,10.8574667 L5.2332,10.8612 C5.1996,11.1738667 5.32186667,11.4725333 5.6,11.7590667 C5.67653333,11.8365333 5.76146667,11.8990667 5.85573333,11.9466667 L7.23146667,11.9466667 C7.54074613,11.9466667 7.79146667,12.1973872 7.79146667,12.5066667 C7.79146667,12.8159461 7.54074613,13.0666667 7.23146667,13.0666667 L1.21706667,13.0666667 C0.907787207,13.0666667 0.657066667,12.8159461 0.657066667,12.5066667 C0.657066667,12.1973872 0.907787207,11.9466667 1.21706667,11.9466667 L2.2904,11.9466667 C2.7328,11.8813333 3.04546667,11.7768 3.2284,11.6349333 C3.37493333,11.5210667 3.5,11.3362667 3.60546667,11.0777333 L5.8604,2.1644 C5.88772963,1.88252794 5.79214136,1.60256657 5.59813333,1.39626667 C5.48480449,1.27238389 5.34330238,1.17762229 5.1856,1.12 L3.87333333,1.12 C3.56405387,1.12 3.31333333,0.86927946 3.31333333,0.56 C3.31333333,0.25072054 3.56405387,0 3.87333333,0 L9.8868,0 C10.1960795,0 10.4468,0.25072054 10.4468,0.56 C10.4468,0.86927946 10.1960795,1.12 9.8868,1.12 L8.77146667,1.12 C8.42053333,1.17226667 8.1648,1.26466667 8.00333333,1.39626667 C7.80266667,1.5596 7.60853333,1.806 7.42186667,2.1336 L5.2136,10.8574667 Z" id="path-1"></path>
    </defs>
    <g id="Page-1" stroke="none" stroke-width="1" fill="none" fill-rule="evenodd">
        <g id="button-italic" transform="translate(-9.000000, -7.000000)">
            <rect id="bg" x="0" y="0" width="28" height="28" rx="2"></rect>
            <g id="icons/italic" transform="translate(4.666667, 4.666667)">
                <g id="italic" transform="translate(3.733333, 2.800000)">
                    <mask id="mask-2" fill="white">
                        <use xlink:href="#path-1"></use>
                    </mask>
                    <use id="icon" fill="#333333" xlink:href="#path-1"></use>
                    <g id="colors/base-text" mask="url(#mask-2)" fill="#333333">
                        <g transform="translate(-3.733333, -2.800000)" id="color">
                            <rect x="0" y="0" width="18.6666667" height="18.6666667"></rect>
                        </g>
                    </g>
                </g>
            </g>
        </g>
    </g>
</svg>