<svg width="20" height="20" viewBox="0 0 20 20" fill="none" xmlns="http://www.w3.org/2000/svg">
<path fill-rule="evenodd" clip-rule="evenodd" d="M14.8379 3L14.6621 3.83984H14.3984C13.7604 3.83984 13.3014 3.96029 13.0215 4.20117C12.7415 4.44206 12.5527 4.80013 12.4551 5.27539L10.3848 15.0801C10.3262 15.36 10.2969 15.5456 10.2969 15.6367C10.2969 16.1706 10.7786 16.4375 11.7422 16.4375H11.9961L11.8203 17.2773H6L6.15625 16.4375H6.41992C7.5267 16.4375 8.18099 15.959 8.38281 15.002L10.4629 5.19727C10.515 4.94987 10.541 4.76432 10.541 4.64062C10.541 4.10677 10.0592 3.83984 9.0957 3.83984H8.8418L9.01758 3H14.8379Z" fill="black"/>
</svg>
