<?xml version="1.0" encoding="UTF-8"?>
<svg width="18px" height="15px" viewBox="0 0 18 15" version="1.1" xmlns="http://www.w3.org/2000/svg" xmlns:xlink="http://www.w3.org/1999/xlink">
    <!-- Generator: Sketch 60.1 (88133) - https://sketch.com -->
    <title>li</title>
    <desc>Created with Sketch.</desc>
    <defs>
        <path d="M6.53333333,3.5 C6.53333333,3.8864 6.84693333,4.2 7.23333333,4.2 L16.1,4.2 C16.4865993,4.2 16.8,3.88659932 16.8,3.5 C16.8,3.11340068 16.4865993,2.8 16.1,2.8 L7.23333333,2.8 C6.84673401,2.8 6.53333333,3.11340068 6.53333333,3.5 Z M3.26666667,0.933333333 L3.26666667,5.6 L1.86666667,5.6 L1.86666667,1.58666667 L0.933333333,1.58666667 L0.933333333,0.653333333 L3.26666667,0.653333333 L3.26666667,0.933333333 Z M0.320133333,14.7998667 L2.73746667,11.76 L2.72533333,11.76 C2.86082299,11.5246276 2.80789716,11.2259655 2.59977743,11.051484 C2.3916577,10.8770026 2.0883423,10.8770026 1.88022257,11.051484 C1.67210284,11.2259655 1.61917701,11.5246276 1.75466667,11.76 L0.281866667,11.76 C0.247418526,11.0716833 0.595032298,10.4203854 1.18605175,10.0658961 C1.7770712,9.71140686 2.5153288,9.71140686 3.10634825,10.0658961 C3.6973677,10.4203854 4.04498147,11.0716833 4.01053333,11.76 L4.0096,11.76 C3.9648,12.138 3.86026667,12.4450667 3.6988,12.6821333 C3.53546667,12.9192 3.14813333,13.328 2.53773333,13.9066667 L4.01333333,13.9066667 L4.01333333,14.84 L0.28,14.84 L0.320133333,14.7998667 Z M6.53333333,11.9 C6.53333333,11.5134007 6.84673401,11.2 7.23333333,11.2 L16.1,11.2 C16.4865993,11.2 16.8,11.5134007 16.8,11.9 C16.8,12.2865993 16.4865993,12.6 16.1,12.6 L7.23333333,12.6 C6.84673401,12.6 6.53333333,12.2865993 6.53333333,11.9 L6.53333333,11.9 Z" id="path-1"></path>
    </defs>
    <g id="Page-1" stroke="none" stroke-width="1" fill="none" fill-rule="evenodd">
        <g id="button-list-numbered" transform="translate(-5.000000, -7.000000)">
            <rect id="bg" x="0" y="0" width="28" height="28" rx="2"></rect>
            <g id="icons/list-number" transform="translate(4.666667, 4.666667)">
                <g id="list-number" transform="translate(0.933333, 1.866667)">
                    <mask id="mask-2" fill="white">
                        <use xlink:href="#path-1"></use>
                    </mask>
                    <use id="icon" fill="#000000" xlink:href="#path-1"></use>
                    <g id="colors/base-text" mask="url(#mask-2)" fill="#333333">
                        <g transform="translate(-0.933333, -1.866667)" id="color">
                            <rect x="0" y="0" width="18.6666667" height="18.6666667"></rect>
                        </g>
                    </g>
                </g>
            </g>
        </g>
    </g>
</svg>