<svg width="20" height="20" viewBox="0 0 20 20" fill="none" xmlns="http://www.w3.org/2000/svg">
<path d="M4.19048 10.3453C4.56908 9.96765 5.18188 9.96765 5.56048 10.3453C5.74191 10.5265 5.84385 10.7724 5.84385 11.0288C5.84385 11.2852 5.74191 11.5311 5.56048 11.7123L3.50548 13.7643C3.14232 14.1267 2.93824 14.6187 2.93824 15.1318C2.93824 15.6448 3.14232 16.1368 3.50548 16.4993C4.26269 17.2545 5.48828 17.2545 6.24548 16.4993L11.0395 11.7123C11.2209 11.5311 11.3229 11.2852 11.3229 11.0288C11.3229 10.7724 11.2209 10.5265 11.0395 10.3453C10.8577 10.164 10.7556 9.91793 10.7556 9.66127C10.7556 9.40461 10.8577 9.1585 11.0395 8.97727C11.4181 8.59965 12.0309 8.59965 12.4095 8.97727C12.9544 9.52094 13.2606 10.259 13.2606 11.0288C13.2606 11.7985 12.9544 12.5366 12.4095 13.0803L7.61448 17.8673C6.1003 19.3783 3.64867 19.3783 2.13448 17.8673C1.40816 17.1424 1 16.1584 1 15.1323C1 14.1061 1.40816 13.1221 2.13448 12.3973L4.19048 10.3443V10.3453ZM15.8105 9.65527C15.4319 10.0329 14.8191 10.0329 14.4405 9.65527C14.2591 9.47407 14.1571 9.22818 14.1571 8.97177C14.1571 8.71536 14.2591 8.46946 14.4405 8.28827L16.4955 6.23627C16.8586 5.87384 17.0627 5.38184 17.0627 4.86877C17.0627 4.3557 16.8586 3.8637 16.4955 3.50127C15.7383 2.74603 14.5127 2.74603 13.7555 3.50127L8.96248 8.28827C8.78105 8.46946 8.67911 8.71536 8.67911 8.97177C8.67911 9.22818 8.78105 9.47407 8.96248 9.65527C9.14421 9.8365 9.24635 10.0826 9.24635 10.3393C9.24635 10.5959 9.14421 10.842 8.96248 11.0233C8.58388 11.4009 7.97109 11.4009 7.59248 11.0233C7.04759 10.4796 6.74137 9.7415 6.74137 8.97177C6.74137 8.20204 7.04759 7.46394 7.59248 6.92027L12.3875 2.13327C13.9017 0.622244 16.3533 0.622244 17.8675 2.13327C18.5938 2.85813 19.002 3.84213 19.002 4.86827C19.002 5.89441 18.5938 6.87841 17.8675 7.60327L15.8105 9.65627V9.65527Z" fill="black"/>
</svg>
