<?xml version="1.0" encoding="UTF-8"?>
<svg width="14px" height="16px" viewBox="0 0 14 16" version="1.1" xmlns="http://www.w3.org/2000/svg" xmlns:xlink="http://www.w3.org/1999/xlink">
    <!-- Generator: Sketch 60.1 (88133) - https://sketch.com -->
    <title>link</title>
    <desc>Created with Sketch.</desc>
    <defs>
        <path d="M8.47186667,12.1333333 L9.3968,10.8117333 C9.54018259,10.6068296 9.7819884,10.4939845 10.0311315,10.5157056 C10.2802747,10.5374267 10.4989043,10.6904141 10.6046649,10.9170389 C10.7104254,11.1436637 10.6872493,11.4094963 10.5438667,11.6144 L9.4724,13.1450667 C9.41852679,13.2221418 9.34963769,13.2875389 9.26986667,13.3373333 C7.59738195,15.0865902 4.89844474,15.3531299 2.91610188,13.9648138 C0.933759024,12.5764977 0.261604247,9.94904391 1.33373333,7.77933333 C1.3524,7.69066667 1.38973333,7.60293333 1.44573333,7.5236 L2.51626667,5.99386667 C2.65592731,5.77984581 2.90112176,5.65894341 3.15593413,5.67845441 C3.4107465,5.69796541 3.63467547,5.85478864 3.74012386,6.08757751 C3.84557225,6.32036639 3.81577949,6.59212014 3.6624,6.79653333 L2.73746667,8.12 L2.74306667,8.1228 C1.77654401,9.70015315 2.20442609,11.7572688 3.71975494,12.8183944 C5.23508378,13.8795199 7.31450605,13.5781716 8.46626667,12.1305333 L8.47186667,12.1342667 L8.47186667,12.1333333 Z M13.5996,7.154 C13.579866,7.2459159 13.541771,7.33289932 13.4876,7.40973333 L12.4170667,8.93946667 C12.277406,9.15348752 12.0322116,9.27438993 11.7773992,9.25487892 C11.5225868,9.23536792 11.2986579,9.0785447 11.1932095,8.84575582 C11.0877611,8.61296695 11.1175538,8.3412132 11.2709333,8.1368 L12.0736,6.9888 C13.165877,5.40539773 12.7756196,3.23727304 11.1997703,2.13412723 C9.623921,1.03098142 7.45316244,1.4063116 6.3392,2.97453333 L5.53653333,4.1216 C5.31488305,4.4383537 4.87842039,4.51545026 4.56166668,4.29379998 C4.24491297,4.07214971 4.1678164,3.63568705 4.38946667,3.31893333 L5.46093333,1.78826667 C5.51480654,1.71119149 5.58369564,1.64579447 5.66346667,1.596 C7.33595139,-0.153256878 10.0348886,-0.419796545 12.0172315,0.968519545 C13.9995743,2.35683563 14.6717291,4.98428942 13.5996,7.154 L13.5996,7.154 Z M9.3408,4.7908 C9.49297048,4.89731721 9.59656656,5.05994739 9.62877668,5.24287983 C9.66098679,5.42581228 9.61916967,5.61404631 9.51253333,5.76613333 L6.56786667,9.9708 C6.42448408,10.1757037 6.18267826,10.2885489 5.93353514,10.2668278 C5.68439201,10.2451067 5.46576234,10.0921193 5.3600018,9.86549444 C5.25424127,9.63886961 5.27741741,9.37303706 5.4208,9.16813333 L8.36546667,4.96253333 C8.47198387,4.81036285 8.63461405,4.70676677 8.8175465,4.67455666 C9.00047894,4.64234654 9.18871298,4.68416366 9.3408,4.7908 L9.3408,4.7908 Z" id="path-1"></path>
    </defs>
    <g id="Page-1" stroke="none" stroke-width="1" fill="none" fill-rule="evenodd">
        <g id="button-link" transform="translate(-7.000000, -6.000000)">
            <rect id="bg" x="0" y="0" width="28" height="28" rx="2"></rect>
            <g id="icons/link" transform="translate(4.666667, 4.666667)">
                <g id="link" transform="translate(1.866667, 1.866667)">
                    <mask id="mask-2" fill="white">
                        <use xlink:href="#path-1"></use>
                    </mask>
                    <use id="icon" fill="#000000" xlink:href="#path-1"></use>
                    <g id="colors/base-text" mask="url(#mask-2)" fill="#333333">
                        <g transform="translate(-1.866667, -1.866667)" id="color">
                            <rect x="0" y="0" width="18.6666667" height="18.6666667"></rect>
                        </g>
                    </g>
                </g>
            </g>
        </g>
    </g>
</svg>