<svg width="20" height="20" viewBox="0 0 20 20" fill="none" xmlns="http://www.w3.org/2000/svg">
<path fill-rule="evenodd" clip-rule="evenodd" d="M9 15H17C17.5523 15 18 15.4477 18 16C18 16.5523 17.5523 17 17 17H9C8.44772 17 8 16.5523 8 16C8 15.4477 8.44772 15 9 15ZM9 9H17C17.5523 9 18 9.44772 18 10C18 10.5523 17.5523 11 17 11H9C8.44772 11 8 10.5523 8 10C8 9.44772 8.44772 9 9 9ZM9 3H17C17.5523 3 18 3.44772 18 4C18 4.55228 17.5523 5 17 5H9C8.44772 5 8 4.55228 8 4C8 3.44772 8.44772 3 9 3ZM5 2V5.5C5 5.77614 4.77614 6 4.5 6C4.22386 6 4 5.77614 4 5.5V3H3.5C3.22386 3 3 2.77614 3 2.5C3 2.22386 3.22386 2 3.5 2H5ZM4 10.7875C4 10.9049 4.09514 11 4.2125 11H5.5C5.77614 11 6 11.2239 6 11.5C6 11.7761 5.77614 12 5.5 12H3.9125C3.40854 12 3 11.5915 3 11.0875V10.868C3 10.4512 3.25857 10.078 3.64888 9.93167L4.78599 9.50525C4.91472 9.45698 5 9.33392 5 9.19644C5 9.07573 4.90215 8.97788 4.78144 8.97788C4.77818 8.97788 4.77492 8.97795 4.77167 8.9781L3.52816 9.03374C3.24923 9.04623 3.01299 8.83022 3.00051 8.55129C3.00017 8.54376 3 8.53623 3 8.52869C3 8.2367 3.2367 8 3.52869 8H5.0875C5.59146 8 6 8.40854 6 8.9125V9.132C6 9.54884 5.74143 9.92196 5.35112 10.0683L4.19897 10.5004C4.07929 10.5453 4 10.6597 4 10.7875ZM6 15V17C6 17.5523 5.55228 18 5 18H3.50249C3.22497 18 3 17.775 3 17.4975C3 17.22 3.22497 16.995 3.50249 16.995H4.70249C4.8668 16.995 5 16.8618 5 16.6975C5 16.5332 4.8668 16.4 4.70249 16.4H3.4C3.17909 16.4 3 16.2209 3 16C3 15.7791 3.17909 15.6 3.4 15.6H4.70203C4.8666 15.6 5 15.4666 5 15.302C5 15.1375 4.8666 15.0041 4.70203 15.0041H3.50203C3.22477 15.0041 3 14.7793 3 14.502C3 14.2248 3.22477 14 3.50203 14H5C5.55228 14 6 14.4477 6 15Z" fill="black"/>
</svg>
