<?xml version="1.0" encoding="UTF-8"?>
<svg width="14px" height="12px" viewBox="0 0 14 12" version="1.1" xmlns="http://www.w3.org/2000/svg" xmlns:xlink="http://www.w3.org/1999/xlink">
    <!-- Generator: Sketch 60.1 (88133) - https://sketch.com -->
    <title>quote</title>
    <desc>Created with Sketch.</desc>
    <defs>
        <path d="M0.542701379,6.5649953 C0.580088555,3.40295684 3.04007953,0.799980926 6.19496805,0.584195299 L6.23043471,1.20952863 C3.76083471,1.89832863 2.73976805,3.9889953 2.61470138,6.1701953 L6.14270138,6.1701953 C6.65790138,6.1701953 6.60936805,6.5733953 6.60936805,7.09046197 L6.60936805,11.3007286 C6.60936805,11.8177953 6.19123471,11.7701953 5.67603471,11.7701953 L1.00936805,11.7701953 C0.494168046,11.7701953 0.542701379,11.3511286 0.542701379,10.834062 L0.542701379,7.09046197 L0.542701379,6.5649953 Z M8.00936805,6.5649953 C8.04675522,3.40295684 10.5067462,0.799980926 13.6616347,0.584195299 L13.6971014,1.20952863 C11.2275014,1.89926197 10.2064347,3.98992863 10.0823014,6.1701953 L13.609368,6.1701953 C14.124568,6.1701953 14.0760347,6.5733953 14.0760347,7.09046197 L14.0760347,11.3007286 C14.0760347,11.8177953 13.6579014,11.7701953 13.1427014,11.7701953 L8.47603471,11.7701953 C7.96083471,11.7701953 8.00936805,11.3511286 8.00936805,10.834062 L8.00936805,7.09046197 L8.00936805,6.5649953 Z" id="path-1"></path>
    </defs>
    <g id="Page-1" stroke="none" stroke-width="1" fill="none" fill-rule="evenodd">
        <g id="button-quote" transform="translate(-7.000000, -8.000000)">
            <rect id="bg" x="0" y="0" width="28" height="28" rx="2"></rect>
            <g id="icons/quote" transform="translate(4.666667, 4.666667)">
                <g id="quote" transform="translate(1.866667, 3.266667)">
                    <mask id="mask-2" fill="white">
                        <use xlink:href="#path-1"></use>
                    </mask>
                    <use id="icon" fill="#000000" xlink:href="#path-1"></use>
                    <g id="colors/base-text" mask="url(#mask-2)" fill="#333333">
                        <g transform="translate(-1.866667, -3.266667)" id="color">
                            <rect x="0" y="0" width="18.6666667" height="18.6666667"></rect>
                        </g>
                    </g>
                </g>
            </g>
        </g>
    </g>
</svg>