<?xml version="1.0" encoding="UTF-8"?>
<svg width="14px" height="14px" viewBox="0 0 14 14" version="1.1" xmlns="http://www.w3.org/2000/svg" xmlns:xlink="http://www.w3.org/1999/xlink">
    <!-- Generator: Sketch 60.1 (88133) - https://sketch.com -->
    <title>strikethrough</title>
    <desc>Created with Sketch.</desc>
    <defs>
        <path d="M9.98666667,7.93333333 C10.2666667,8.58666667 10.36,9.05333333 10.36,9.52 L10.36,10.2666667 L9.8,11.3866667 C9.24,12.1333333 8.77333333,12.32 8.30666667,12.5066667 C7.60700665,12.8469072 6.84412692,13.0376271 6.06666667,13.0666667 C5.13333333,13.0666667 4.38666667,12.7866667 3.73333333,12.5066667 C2.98666667,12.1333333 2.33333333,11.6666667 1.68,11.1066667 C1.54754408,10.9893386 1.47833291,10.8163106 1.49333333,10.64 L1.77333333,10.08 L2.70666667,10.08 C3.64,11.2 4.66666667,11.6666667 6.16,11.6666667 C7.09333333,11.6666667 7.84,11.3866667 8.30666667,11.1066667 C8.86666667,10.7333333 8.86666667,9.98666667 8.86666667,9.89333333 C9.05333333,8.77333333 8.02666667,7.93333333 8.02666667,7.93333333 L9.98666667,7.93333333 Z M8.68,0.56 C9.27850152,0.733798874 9.82397154,1.05466359 10.2666667,1.49333333 L10.5466667,2.14666667 C10.5466667,2.24 10.7333333,2.52 10.36,2.8 C9.98666667,2.98666667 9.52,2.89333333 9.42666667,2.8 C9.14229935,2.39544767 8.75586634,2.07342016 8.30666667,1.86666667 C7.93333333,1.68 7.37333333,1.58666667 6.44,1.49333333 C5.78666667,1.49333333 5.13333333,1.68 4.57333333,2.05333333 C3.82666667,2.61333333 3.64,2.8 3.64,3.45333333 C3.64,4.2 4.10666667,4.38666667 4.76,4.85333333 C5.19657143,5.14438095 5.57641827,5.37870398 6.07642862,5.60052445 L13.0666667,5.6 L13.0666667,7 L0,7 L0,5.6 L3.54666667,5.6 L2.8,4.94666667 C2.42666667,4.48 2.33333333,4.2 2.33333333,3.45333333 C2.33333333,2.8 2.42666667,2.24 2.8,1.77333333 C3.17333333,1.21333333 3.73333333,0.84 4.29333333,0.56 C5.70081202,-0.00585230482 7.27252131,-0.00585230482 8.68,0.56 Z" id="path-1"></path>
    </defs>
    <g id="Page-1" stroke="none" stroke-width="1" fill="none" fill-rule="evenodd">
        <g id="button-strikethrough" transform="translate(-7.000000, -7.000000)">
            <rect id="bg" x="0" y="0" width="28" height="28" rx="2"></rect>
            <g id="icons/strikethrough" transform="translate(4.666667, 4.666667)">
                <g id="strikethrough" transform="translate(2.800000, 2.800000)">
                    <mask id="mask-2" fill="white">
                        <use xlink:href="#path-1"></use>
                    </mask>
                    <use id="icon" fill="#000000" xlink:href="#path-1"></use>
                    <g id="colors/base-text" mask="url(#mask-2)" fill="#333333">
                        <g transform="translate(-2.800000, -2.800000)" id="color">
                            <rect x="0" y="0" width="18.6666667" height="18.6666667"></rect>
                        </g>
                    </g>
                </g>
            </g>
        </g>
    </g>
</svg>