<svg width="20" height="20" viewBox="0 0 20 20" fill="none" xmlns="http://www.w3.org/2000/svg">
<path fill-rule="evenodd" clip-rule="evenodd" d="M13.6 6.5C13.1075 5.8355 12.6681 5.38608 12.2817 5.15175C11.7022 4.80025 11 4.6 10.301 4.6C7.6 4.6 7.5 6.344 7.5 6.705C7.5 8.31912 9.275 8.70813 10.7 9C15.089 9.89895 15.3115 11.8105 15.3 12.9C15.2851 14.3104 14.6 17 10.3 17C7.4 17 5.75359 15.5353 5 14.4285L6.539 13.2885C6.881 13.8775 8.08986 15.369 10.244 15.369C11.8312 15.369 12.673 14.9034 13.1225 14.1292C13.6107 13.2885 13.4929 12.0368 12.3673 11.4502C11.6927 11.0987 10.8 10.8031 9.5 10.5C8.46605 10.2589 5.6 9.7 5.6 6.9C5.6 4 8.27847 3 10.3865 3C13.297 3 14.6 4.6 15.1 5.4L13.6 6.5Z" fill="black"/>
<path d="M3 9H17C17.5523 9 18 9.44772 18 10C18 10.5523 17.5523 11 17 11H3C2.44772 11 2 10.5523 2 10C2 9.44772 2.44772 9 3 9Z" fill="black"/>
</svg>
