<?xml version="1.0" encoding="UTF-8"?>
<svg width="16px" height="13px" viewBox="0 0 16 13" version="1.1" xmlns="http://www.w3.org/2000/svg" xmlns:xlink="http://www.w3.org/1999/xlink">
    <!-- Generator: Sketch 60.1 (88133) - https://sketch.com -->
    <title>ul</title>
    <desc>Created with Sketch.</desc>
    <defs>
        <path d="M6.06666667,2.1 C6.06666667,2.4864 6.38026667,2.8 6.76666667,2.8 L15.6333333,2.8 C16.0199327,2.8 16.3333333,2.48659932 16.3333333,2.1 C16.3333333,1.71340068 16.0199327,1.4 15.6333333,1.4 L6.76666667,1.4 C6.38006734,1.4 6.06666667,1.71340068 6.06666667,2.1 Z M0.466666667,2.1 C0.466666667,1.1984 1.19186667,0.466666667 2.1,0.466666667 C3.0016,0.466666667 3.73333333,1.19186667 3.73333333,2.1 C3.73333333,3.0016 3.00813333,3.73333333 2.1,3.73333333 C1.1984,3.73333333 0.466666667,3.00813333 0.466666667,2.1 Z M6.06666667,10.5 C6.06666667,10.8864 6.38026667,11.2 6.76666667,11.2 L15.6333333,11.2 C16.0199327,11.2 16.3333333,10.8865993 16.3333333,10.5 C16.3333333,10.1134007 16.0199327,9.8 15.6333333,9.8 L6.76666667,9.8 C6.38006734,9.8 6.06666667,10.1134007 6.06666667,10.5 L6.06666667,10.5 Z M0.466666667,10.5 C0.466666667,9.5984 1.19186667,8.86666667 2.1,8.86666667 C3.0016,8.86666667 3.73333333,9.59186667 3.73333333,10.5 C3.73333333,11.4016 3.00813333,12.1333333 2.1,12.1333333 C1.1984,12.1333333 0.466666667,11.4081333 0.466666667,10.5 Z" id="path-1"></path>
    </defs>
    <g id="Page-1" stroke="none" stroke-width="1" fill="none" fill-rule="evenodd">
        <g id="button-list-bulleted" transform="translate(-6.000000, -7.000000)">
            <rect id="bg" x="0" y="0" width="28" height="28" rx="2"></rect>
            <g id="icons/list-bullet" transform="translate(4.666667, 4.666667)">
                <g id="list-bullet" transform="translate(0.933333, 2.800000)">
                    <mask id="mask-2" fill="white">
                        <use xlink:href="#path-1"></use>
                    </mask>
                    <use id="icon" fill="#000000" xlink:href="#path-1"></use>
                    <g id="colors/base-text" mask="url(#mask-2)" fill="#333333">
                        <g transform="translate(-0.933333, -2.800000)" id="color">
                            <rect x="0" y="0" width="18.6666667" height="18.6666667"></rect>
                        </g>
                    </g>
                </g>
            </g>
        </g>
    </g>
</svg>