<svg width="20" height="20" viewBox="0 0 20 20" fill="none" xmlns="http://www.w3.org/2000/svg">
<path fill-rule="evenodd" clip-rule="evenodd" d="M8.5 2.5H16.5C17.0523 2.5 17.5 2.94772 17.5 3.5C17.5 4.05228 17.0523 4.5 16.5 4.5H8.5C7.94772 4.5 7.5 4.05228 7.5 3.5C7.5 2.94772 7.94772 2.5 8.5 2.5ZM8.5 8.5H16.5C17.0523 8.5 17.5 8.94772 17.5 9.5C17.5 10.0523 17.0523 10.5 16.5 10.5H8.5C7.94772 10.5 7.5 10.0523 7.5 9.5C7.5 8.94772 7.94772 8.5 8.5 8.5ZM8.5 14.5H16.5C17.0523 14.5 17.5 14.9477 17.5 15.5C17.5 16.0523 17.0523 16.5 16.5 16.5H8.5C7.94772 16.5 7.5 16.0523 7.5 15.5C7.5 14.9477 7.94772 14.5 8.5 14.5ZM2 3.5C2 3.08594 2.14648 2.73242 2.43945 2.43945C2.73242 2.14648 3.08594 2 3.5 2C3.91406 2 4.26758 2.14648 4.56055 2.43945C4.85352 2.73242 5 3.08594 5 3.5C5 3.91406 4.85352 4.26758 4.56055 4.56055C4.26758 4.85352 3.91406 5 3.5 5C3.08594 5 2.73242 4.85352 2.43945 4.56055C2.14648 4.26758 2 3.91406 2 3.5ZM2 9.5C2 9.08594 2.14648 8.73242 2.43945 8.43945C2.73242 8.14648 3.08594 8 3.5 8C3.91406 8 4.26758 8.14648 4.56055 8.43945C4.85352 8.73242 5 9.08594 5 9.5C5 9.91406 4.85352 10.2676 4.56055 10.5605C4.26758 10.8535 3.91406 11 3.5 11C3.08594 11 2.73242 10.8535 2.43945 10.5605C2.14648 10.2676 2 9.91406 2 9.5ZM2 15.5C2 15.0859 2.14648 14.7324 2.43945 14.4395C2.73242 14.1465 3.08594 14 3.5 14C3.91406 14 4.26758 14.1465 4.56055 14.4395C4.85352 14.7324 5 15.0859 5 15.5C5 15.9141 4.85352 16.2676 4.56055 16.5605C4.26758 16.8535 3.91406 17 3.5 17C3.08594 17 2.73242 16.8535 2.43945 16.5605C2.14648 16.2676 2 15.9141 2 15.5Z" fill="black"/>
</svg>
